<?xml version="1.0" encoding="UTF-8"?>
<svg id="Layer_2" data-name="Layer 2" xmlns="http://www.w3.org/2000/svg" viewBox="0 0 464.57 192.66">
  <defs>
    <style>
      .cls-1 {
        fill: #fff;
      }
    </style>
  </defs>
  <g id="Layer_1-2" data-name="Layer 1">
    <g>
      <path class="cls-1" d="M78.63,50.59c-4.01-3.37-10.97-5.9-20.45-5.9-14.13,0-25.51,10.75-29.31,18.34-.63-3.58-1.47-11.38-2.1-17.28-9.7,1.26-16.65,2.74-23.82,4.64-1.06.21-1.47.64-1.47,1.47v2.32c2.52.85,6.32,3.17,8.85,7.59,1.63,2.73,2.48,7.64,2.69,12.32h18.45c.72-2.55,1.64-4.86,2.89-7.04,3.37-6.11,8.86-13.91,20.66-13.91,8.64,0,12.44,4,15.39,9.49,1.69,3.16,4.85,12.22,4.85,29.09,0,29.3-11.17,40.89-25.71,40.89-9.69,0-16.87-4.85-20.24-11.59v-3.95H13.07v49.9c0,8.01-.63,13.07-1.9,14.96-2.53,4.01-5.69,4.43-9.48,5.27-1.06.21-1.69,2.11-1.69,3.38,0,1.05.21,1.47.42,2.1,5.9-.21,17.07-1.05,22.97-1.05,4.43,0,16.23.63,23.19,1.05.21,0,.63-.63.84-1.47,0-.42.21-1.06.21-1.69,0-.21,0-.63-.63-.63-2.32-.21-11.17-1.69-14.75-6.53-2.11-2.95-2.95-8.01-2.95-16.02v-33.94c5.69,4.84,10.96,7.59,21.29,7.59,20.02,0,42.79-19.39,42.79-51.44,0-18.76-5.47-30.14-14.75-37.94Z"/>
      <path class="cls-1" d="M159.99,64.5c-5.06,0-7.8-7.38-13.28-7.38-4.85,0-6.33,2.96-8.22,5.48-4.21,5.69-3.79,16.02-3.79,17.91v31.62c0,8.22.84,13.28,2.95,16.23,3.59,4.84,12.44,5.69,14.54,6.32.63.21.85.42.85.63,0,.84-.21,1.68-.42,2.53-.21.63-.21.84-.63.84-6.96-.42-19.39-1.05-23.82-1.05s-17.29.84-22.14,1.05c-.21-.63-.42-.84-.42-1.9,0-1.26.63-3.16,1.69-3.37,3.79-.84,6.96-1.26,9.49-5.27,1.26-1.9,1.68-6.96,1.68-15.18v-32.46c0-6.74.21-13.91-2.1-18.55-2.33-4.64-6.33-6.95-8.85-7.8v-2.32c0-.84.42-1.05,1.48-1.47,6.11-1.9,13.06-3.79,22.98-5.9.41,3.8,1.26,9.7,2.31,14.13,4.01-5.91,14.12-13.91,22.97-13.91,4.44,0,7.17,1.05,9.7,3.16,2.11,1.69,2.95,4.64,2.95,7.8,0,6.32-4.43,8.85-9.9,8.85Z"/>
      <path class="cls-1" d="M252.73,136.38c-1.9,1.26-5.91,3.58-11.17,3.58-7.59,0-13.48-5.27-14.76-13.49-2.52,5.06-11.8,13.49-22.55,13.49-19.6,0-25.29-12.65-25.29-23.18,0-7.38,4.64-16.86,19.18-21.08,3.58-1.06,14.97-4.43,28.46-8.01v-15.6c0-11.39-2.95-21.5-11.6-21.5-11.17,0-15.59,10.12-15.59,17.49,0,2.32.84,2.95.84,3.79-.63,1.26-3.8,3.59-7.8,3.59-4.42,0-9.27-2.75-9.27-8.44,0-4.42,5.06-10.54,8.43-13.07,6.54-5.06,15.39-9.27,24.87-9.27,11.38,0,16.66,3.58,19.4,6.53,5.69,6.54,6.96,11.59,6.96,28.04v34.78c0,16.65,2.53,17.7,9.28,17.7,1.26,0,1.9.63,1.9,2.1,0,1.27-.21,1.9-1.26,2.53ZM226.6,93.8c-9.28,1.9-22.14,7.37-24.88,9.27-3.58,2.53-5.27,7.17-5.27,12.02,0,8.85,4,15.81,13.28,15.81,11.17,0,16.86-14.54,16.86-23.4v-13.7Z"/>
      <path class="cls-1" d="M345.26,138.69c-7.16-.42-11.8-1.05-19.39-1.05-5.9,0-14.12.21-18.97,1.05v-3.37c4.42-.63,10.12-2.11,10.12-6.75,0-1.69-.63-3.8-2.11-6.33l-14.55-24.24-14.55,22.98c-1.47,2.32-2.95,4.85-2.95,6.53,0,4.42,4.01,7.37,9.28,8.01v3.16c-4.64-.63-11.38-1.05-14.97-1.05-4.01,0-14.75.84-16.65,1.05-.21-.42-.21-.84-.21-1.69,0-2.32.42-2.53,4-4,2.95-1.26,8.43-6.53,11.39-10.54l21.5-29.72-18.34-28.25c-4.22-6.74-8.85-11.17-12.44-12.43-3.58-1.27-4.85-1.69-4.85-2.96v-3.15c4.85.42,14.33,1.05,19.82,1.05s12.43-.21,20.44-1.05v3.15c-3.58.42-9.48,1.27-9.48,6.11,0,1.26.63,2.95,1.69,4.85l12.43,20.44,10.32-17.28c1.69-2.75,2.96-5.9,2.96-7.59,0-4.43-2.53-5.48-8.44-6.33v-3.37c3.58.42,11.81,1.05,15.39,1.05,4.21,0,9.9-.21,16.02-1.05.2.84.41,1.05.41,2.52s-.63,1.9-4,3.37c-5.06,2.32-10.12,7.17-12.65,10.75l-16.86,23.39,22.34,33.73c3.37,5.27,7.59,11.38,11.59,13.48,1.69.85,2.12,1.69,2.12,3.38,0,.84-.21,1.48-.43,2.1Z"/>
      <path class="cls-1" d="M395.86,138.69c-6.96-.42-16.65-1.05-21.08-1.05s-17.07.84-22.56,1.05c-.2-.63-.41-.84-.41-1.9,0-1.26.63-3.16,1.69-3.37,3.79-.84,6.95-1.26,9.48-5.27,1.26-1.9,1.69-6.96,1.69-14.33v-33.3c0-6.74,0-15.6-2.32-20.03-2.32-4.42-4.01-5.9-8.64-7.59v-2.1c0-1.05.42-1.47,1.48-1.69,6.53-1.9,19.81-3.37,25.71-4.42v67.66c0,8.01.63,13.07,2.74,16.02,3.58,4.84,7.37,5.9,11.8,6.53,1.48.21,1.48.42,1.48.85,0,2.1-.85,2.95-1.06,2.95ZM371.41,22.34c-6.12,0-11.18-5.06-11.18-11.17s5.06-11.17,11.18-11.17,11.16,5.06,11.16,11.17-5.05,11.17-11.16,11.17Z"/>
      <path class="cls-1" d="M431.26,139.96c-6.74,0-16.02-1.9-19.18-2.95-3.8-1.26-4.22-1.68-4.64-4.21l-2.53-17.71c-.42-3.17,1.9-4.01,5.26-4.01,5.91,16.86,10.76,24.03,21.51,24.03,9.49,0,16.02-4.43,16.02-16.44,0-10.96-9.27-17.29-20.45-24.03-14.96-9.06-19.6-15.6-19.6-26.98,0-16.02,14.97-22.98,29.09-22.98,6.53,0,11.59.84,17.49,2.74,3.37,1.05,3.79,1.68,4,4.22l1.9,15.38c.42,2.95-2.11,3.79-5.26,3.79-2.53-9.06-8.23-21.29-17.92-21.29-8.43,0-13.07,6.12-13.07,13.07,0,8.85,4.21,14.75,20.66,23.82,16.23,8.64,20.02,18.13,20.02,27.62,0,14.75-13.48,25.92-33.3,25.92Z"/>
    </g>
  </g>
</svg>